<svg width="127" height="47" viewBox="0 0 127 47" fill="none" xmlns="http://www.w3.org/2000/svg">
<path d="M27.7764 13.6562H100.722V36.4216H27.7764V13.6562Z" fill="black"/>
<path d="M19.9784 28.8035C16.2722 28.8035 15.1471 27.3475 14.4852 26.0238C13.294 23.4427 13.6911 19.0747 18.1915 18.1481C19.6475 17.8172 21.2359 17.6848 23.2213 17.2877C25.273 16.7583 25.1406 12.9197 21.8315 12.655C14.4852 12.0593 10.7128 14.5081 8.19791 18.0157C6.14625 20.9278 5.94771 24.634 6.47717 27.8769C6.94044 30.5904 8.06555 32.8406 11.2423 35.157C15.4118 38.2014 25.273 37.6058 25.5377 32.7083C25.6701 30.3257 24.9421 28.8035 19.9784 28.8035Z" fill="white"/>
<path d="M46.5445 26.1562C46.3459 22.9133 45.1546 19.6703 43.3677 16.9568C41.8455 14.7066 39.7938 12.1917 36.8156 12.2579C30.6607 12.1917 28.2119 19.5379 27.4177 24.5016C26.8883 27.8108 27.2854 31.3846 29.2046 34.1643C30.793 36.4145 33.9036 37.0763 36.4185 37.1425C43.0368 37.341 47.0077 32.5759 46.5445 26.1562ZM37.8746 30.4581C37.8084 31.1199 37.7422 31.8479 37.4113 32.3773C37.2127 32.7083 36.8818 33.1054 36.4847 33.0392C35.2273 32.9068 35.2273 31.0537 35.2273 30.1271C35.2273 29.333 35.4258 27.546 36.6171 27.6122C37.8084 27.6784 37.8746 29.6639 37.8746 30.4581Z" fill="white"/>
<path d="M64.3052 30.4581C63.1139 29.1344 61.8564 28.7373 60.1357 28.6049C58.7458 28.4064 57.1574 28.5388 56.2971 27.2813C55.7014 26.4871 55.8338 25.1635 55.7676 24.2369C55.6353 20.4645 55.5691 16.6259 55.6353 12.8535C55.6353 9.94148 55.5691 6.36763 51.929 6.23526C48.4875 6.03671 48.8185 12.0593 48.6861 14.111C48.5537 17.2216 48.4214 20.3321 48.3552 23.4427C48.4214 27.546 47.9581 31.9141 48.5537 35.9512C48.8185 37.2749 49.1494 38.5985 50.4068 39.3265C51.0687 39.7236 52.1276 39.5912 52.8556 39.5912C54.0469 39.6574 55.3043 39.6574 56.4956 39.5912C59.6724 39.5912 63.3124 39.4589 64.7684 36.2159C65.4964 34.6276 65.5626 31.8479 64.3052 30.4581Z" fill="white"/>
<path d="M85.5818 26.1562C85.3832 22.9133 84.192 19.6703 82.405 16.9568C80.8828 14.7066 78.8312 12.1917 75.853 12.2579C69.698 12.1917 67.2492 19.5379 66.4551 24.5016C65.9256 27.8108 66.3227 31.3846 68.242 34.1643C69.8304 36.4145 72.9409 37.0763 75.4559 37.1425C82.0741 37.341 86.0451 32.5759 85.5818 26.1562ZM76.9119 30.4581C76.8457 31.1199 76.7795 31.8479 76.4486 32.3773C76.2501 32.7083 75.9192 33.1054 75.5221 33.0392C74.2646 32.9068 74.2646 31.0537 74.2646 30.1271C74.2646 29.333 74.4631 27.546 75.6544 27.6122C76.8457 27.6784 76.9119 29.6639 76.9119 30.4581Z" fill="white"/>
<path d="M98.5112 28.274C102.681 26.9504 104.004 22.0529 104.07 18.6776C104.137 14.2433 102.681 8.68402 97.3861 6.76472C93.9446 5.50725 89.6427 6.63236 88.0543 9.54439C86.7969 11.927 87.4587 15.1699 87.4587 17.6848C87.4587 20.4645 87.4587 23.2442 87.4587 25.9576C87.4587 28.4726 87.5249 31.0537 87.6572 33.5686C87.7234 35.157 87.0616 38.7309 89.7089 39.3927C94.8049 40.584 94.4079 35.7527 94.3417 32.5097C95.0035 33.5686 95.533 35.0247 95.9962 35.9512C96.4595 37.0101 97.0552 38.0029 97.9817 38.7971C99.1068 39.7898 101.489 39.9883 102.416 38.5985C103.607 36.7454 102.217 34.7599 101.225 33.0392C100.364 31.4508 99.4377 29.8624 98.5112 28.274ZM96.1286 22.3176C96.0624 22.9794 95.9962 23.6413 95.6653 24.2369C95.4668 24.5016 95.1359 24.8987 94.7388 24.8325C93.4813 24.7002 93.4151 22.9133 93.4813 21.9867C93.4813 21.1925 93.6798 19.4056 94.8049 19.4718C96.0624 19.5379 96.1286 21.4572 96.1286 22.3176Z" fill="white"/>
<path d="M115.656 28.3383C114.284 27.7893 112.802 27.46 111.594 26.5268C111.21 26.1975 110.99 25.7583 110.99 25.2094C110.88 24.2213 112.802 22.9588 112.802 24.3311C112.857 24.88 112.966 25.3741 113.131 25.8681C113.9 28.1187 117.083 27.6247 118.84 27.2953C120.981 26.9111 120.761 23.7822 120.761 22.1903C120.816 18.8419 119.938 14.9994 116.809 13.1879C113.954 11.596 110.332 12.3096 108.081 14.5053C105.446 17.0853 105.336 21.6963 105.775 25.0996C106.16 28.4481 108.136 30.9182 111.32 32.1807C112.198 32.5101 113.076 32.8395 113.9 33.2786C115.107 33.9373 114.174 34.9254 113.296 35.0352C113.021 35.0352 112.692 35.0352 112.363 34.9803C110.771 34.8156 109.234 34.0471 107.587 34.2118C104.293 34.596 105.666 38.8227 107.971 39.5912C109.838 40.1951 111.814 40.0304 113.79 40.0304C115.491 40.0853 117.138 39.9206 118.565 39.0423C120.761 37.67 120.926 34.5411 120.322 32.3454C119.718 30.2595 117.522 29.1617 115.656 28.3383Z" fill="white"/>
<path fill-rule="evenodd" clip-rule="evenodd" d="M15.1652 19.7863C13.5961 21.5512 13.654 24.2217 14.4852 26.0225C15.147 27.3461 16.2721 28.8021 19.9783 28.8021C20.3564 28.8021 20.71 28.811 21.0404 28.8283C25.0479 29.039 25.6599 30.5058 25.5376 32.7069C25.4569 34.2003 24.4838 35.2938 23.0519 36.0059C19.788 37.6292 14.1403 37.2717 11.2422 35.1556C8.06546 32.8393 6.94036 30.5891 6.47708 27.8756C5.94762 24.6326 6.14617 20.9264 8.19783 18.0144C9.02528 16.8603 9.98885 15.8209 11.171 14.9668C12.6854 13.8727 14.5585 13.0827 16.9638 12.7455C17.0012 12.7403 17.0386 12.7352 17.0762 12.7301C17.8227 12.6306 18.6201 12.5742 19.4733 12.5654C20.2159 12.5578 21.0008 12.5863 21.8314 12.6536C21.8993 12.659 21.9658 12.666 22.031 12.6743C22.1262 12.6866 22.2185 12.7019 22.308 12.72C23.2956 12.9207 23.9424 13.4731 24.284 14.1295C24.9249 15.3609 24.492 16.9584 23.2213 17.2864C23.0927 17.3121 22.9659 17.3367 22.8406 17.3603C22.3493 17.4529 21.8824 17.5304 21.4357 17.6003L21.4303 17.6012C21.1405 17.6465 20.8593 17.6887 20.5853 17.7297C20.1836 17.79 19.7975 17.8479 19.4234 17.9099C18.9992 17.9803 18.5903 18.0561 18.1914 18.1467C16.8308 18.4269 15.8452 19.0216 15.1652 19.7863ZM28.0158 21.6586C27.7819 22.5446 27.6003 23.4143 27.4627 24.2269C27.4471 24.3188 27.4321 24.4099 27.4176 24.5003C26.9675 27.3137 27.1871 30.3185 28.4426 32.8639L28.4448 32.8684C28.6654 33.3153 28.918 33.7479 29.2046 34.1629C29.4207 34.4691 29.6651 34.7459 29.9322 34.9958C30.3053 35.3447 30.7229 35.6411 31.1705 35.8919C32.57 36.6759 34.2629 37.0137 35.8054 37.1133C35.8888 37.1187 35.9717 37.1234 36.0541 37.1274C36.1768 37.1334 36.2983 37.138 36.4185 37.1411C38.6994 37.2096 40.666 36.6884 42.2449 35.7131C42.3292 35.661 42.4124 35.6076 42.4944 35.553C42.5278 35.5308 42.561 35.5083 42.594 35.4857C42.7168 35.4015 42.837 35.3144 42.9546 35.2245C45.4968 33.2806 46.8231 30.0172 46.5444 26.1548C46.4895 25.2584 46.3588 24.362 46.1606 23.4767C46.1544 23.4492 46.1482 23.4217 46.1419 23.3943C45.6184 21.1063 44.6453 18.8956 43.3676 16.9555C43.0635 16.5058 42.7381 16.0456 42.3885 15.5975C40.9885 13.8032 39.1987 12.2035 36.8156 12.2565C34.18 12.2282 32.224 13.5589 30.7865 15.4798C29.4685 17.2409 28.5863 19.4981 28.0158 21.6586ZM28.2619 9.13058C30.4005 7.32704 33.2114 6.01279 36.7851 6.0272C39.2781 5.99496 41.3674 6.77165 43.0255 7.79533C43.3056 6.55589 43.8627 4.77881 45.125 3.20101C46.7235 1.20283 49.2108 -0.138657 52.216 0.0114361C54.1647 0.0925149 56.1424 0.668012 57.8453 1.98006C59.5284 3.27676 60.4656 4.92505 60.9887 6.33848C61.8724 8.72594 61.867 11.3726 61.8644 12.6643C61.8642 12.7306 61.8641 12.7933 61.8641 12.8521V12.9068L61.8631 12.9614C61.8371 14.4453 61.8323 15.9448 61.8446 17.4519C62.3558 16.0408 63.0008 14.6129 63.8135 13.2689C65.9352 9.76034 69.7933 6.00288 75.8225 6.0272C78.2955 5.99522 80.3712 6.75925 82.0229 7.77077C82.1732 7.39255 82.3462 7.0131 82.5455 6.63561L82.5654 6.5978L82.5859 6.56028C84.3656 3.2974 87.4224 1.42853 90.3101 0.601449C93.2158 -0.230758 96.5 -0.189987 99.5156 0.909755C103.335 2.29613 105.855 4.71688 107.491 7.44492C111.227 5.67918 115.814 5.49946 119.843 7.74643L119.886 7.7708L119.93 7.79587C126.094 11.3649 127.042 18.2856 126.99 22.2209C126.991 22.2564 126.992 22.3037 126.993 22.3615C127.005 22.982 127.041 24.8221 126.703 26.455C126.564 27.1269 126.283 28.1091 125.749 29.131C125.964 29.5915 126.153 30.0846 126.305 30.6121L126.317 30.6522L126.328 30.6924C126.841 32.5583 127.061 34.8735 126.607 37.1966C126.145 39.5597 124.848 42.4597 121.867 44.3231L121.848 44.3345L121.83 44.3459C118.895 46.1517 115.82 46.3172 113.708 46.2583C113.552 46.2595 113.365 46.2639 113.152 46.2689C111.613 46.305 108.702 46.3731 106.054 45.5164L106.027 45.5079L106.001 45.4992C105.461 45.3191 104.954 45.0935 104.479 44.8303C103.002 45.5802 101.464 45.8188 100.273 45.8188C98.7982 45.8188 97.1602 45.4799 95.6605 44.6984C95.5614 44.7523 95.4603 44.8049 95.3571 44.856C92.9224 46.0622 90.375 45.9439 88.2909 45.4567L88.2444 45.4459L88.1981 45.4343C86.0438 44.8957 84.308 43.6426 83.1471 41.9534C83.1176 41.9104 83.0886 41.8673 83.0601 41.8243C80.7166 42.9282 78.0663 43.4494 75.2814 43.3676C73.6244 43.3232 70.9618 43.0667 68.3522 41.9212C66.7789 43.58 64.8559 44.5579 63.0366 45.0936C60.657 45.7943 58.1879 45.818 56.6611 45.8188C55.3714 45.8841 54.0319 45.885 52.741 45.8213C52.664 45.8235 52.6427 45.8243 52.6176 45.8251C52.5899 45.8261 52.5575 45.8272 52.4411 45.8306C52.2001 45.8377 51.8078 45.8474 51.3714 45.8309C50.6716 45.8045 48.9569 45.7014 47.2514 44.6958C45.8496 43.8765 44.8639 42.8222 44.166 41.7559C41.7876 42.9067 39.0859 43.4511 36.2441 43.3676C34.1367 43.3112 30.4024 42.9116 27.2196 40.7762C25.1328 42.1749 22.7292 42.8254 20.6331 43.0895C16.6088 43.5967 11.3392 42.9372 7.5723 40.1887L7.56988 40.1869L7.56905 40.1863C5.48161 38.6637 3.79139 36.9584 2.54349 34.9394C1.28456 32.9024 0.666512 30.854 0.336987 28.9239L0.33318 28.9016L0.329535 28.8793C-0.326453 24.8613 -0.279984 19.2324 3.10578 14.4268L3.1206 14.4058L3.13559 14.3849C4.87816 11.9544 7.25389 9.63721 10.653 8.11211C14.0107 6.60563 17.8917 6.08518 22.3316 6.44477C24.7565 6.63955 26.7931 7.64461 28.2619 9.13058ZM49.1206 37.888C49.3932 38.464 49.7877 38.9668 50.4068 39.3251C50.9423 39.6465 51.738 39.6211 52.4079 39.5997C52.5657 39.5947 52.7166 39.5899 52.8555 39.5899C54.0468 39.6561 55.3043 39.6561 56.4955 39.5899C58.9074 39.5899 61.5864 39.5136 63.3738 38.0576C63.7749 37.7308 64.1312 37.3345 64.4294 36.8541C64.45 36.8209 64.4704 36.7872 64.4904 36.7532C64.5902 36.5839 64.683 36.4046 64.7683 36.2146C65.4964 34.6262 65.5625 31.8465 64.3051 30.4567C63.1138 29.133 61.8563 28.7359 60.1356 28.6036C60.1107 28.6 60.0857 28.5966 60.0607 28.5932C59.8157 28.5604 59.565 28.5368 59.3138 28.5131C58.1587 28.4043 56.991 28.2942 56.297 27.2799C55.8318 26.6597 55.8107 25.7164 55.7922 24.8916C55.787 24.6604 55.782 24.4384 55.7675 24.2355C55.6352 20.4631 55.569 16.6245 55.6352 12.8521C55.6352 9.94012 55.569 6.36626 51.9289 6.2339C48.9261 6.06065 48.7953 10.6238 48.7228 13.1527C48.7168 13.3624 48.7112 13.5581 48.7044 13.736C48.6992 13.8714 48.6933 13.9966 48.686 14.1096C48.5536 17.2201 48.4213 20.3309 48.3551 23.4413C48.3688 24.293 48.3598 25.156 48.3421 26.0251C48.3419 26.0317 48.3418 26.0382 48.3417 26.0448C48.3311 26.5604 48.3176 27.0782 48.304 27.5969C48.2303 30.4105 48.1559 33.254 48.5536 35.9498C48.688 36.6219 48.8395 37.2939 49.1206 37.888ZM66.5026 24.2114C66.4861 24.3085 66.4702 24.4048 66.455 24.5003C66.2374 25.86 66.1763 27.2644 66.3129 28.64C66.3132 28.643 66.3135 28.6459 66.3138 28.6488C66.5106 30.618 67.1129 32.5278 68.2419 34.1629C68.458 34.4691 68.7024 34.7459 68.9696 34.9958C69.6142 35.5986 70.3918 36.0449 71.2274 36.3696C72.3874 36.8203 73.6594 37.0369 74.8427 37.1133C74.9261 37.1187 75.0091 37.1234 75.0915 37.1274C75.2141 37.1334 75.3356 37.138 75.4558 37.1411C77.7942 37.2113 79.8021 36.6618 81.4007 35.6385C81.4447 35.6104 81.4884 35.5819 81.5318 35.553C81.5651 35.5308 81.5984 35.5083 81.6314 35.4857C81.7541 35.4015 81.8743 35.3144 81.9919 35.2245C82.5408 34.8047 83.0331 34.3235 83.4647 33.7879C83.4775 33.7721 83.4902 33.7563 83.5028 33.7404C85.0445 31.8 85.7985 29.1585 85.5817 26.1548C85.5777 26.0886 85.5732 26.0225 85.5683 25.9563C85.3553 23.065 84.3595 20.1823 82.8624 17.6835C82.7147 17.4369 82.5621 17.1942 82.405 16.9555C82.0103 16.372 81.58 15.7708 81.1073 15.2014C79.7566 13.5747 78.0589 12.2075 75.8529 12.2565C69.8163 12.1916 67.3447 19.2568 66.5026 24.2114ZM74.2749 30.779C74.2784 30.8599 74.283 30.9427 74.2892 31.0264C74.2906 31.0453 74.2921 31.0641 74.2937 31.0831C74.362 31.9116 74.5905 32.8168 75.3545 33.0084C75.4077 33.0218 75.4635 33.0316 75.522 33.0378C75.5359 33.0401 75.5498 33.0419 75.5636 33.0431C75.5687 33.0435 75.5737 33.0439 75.5787 33.0442C75.9505 33.066 76.2595 32.691 76.4485 32.376C76.7179 31.945 76.8118 31.3825 76.8732 30.8312C76.5846 30.8853 76.2541 30.9174 75.8752 30.9183C75.8325 30.9184 75.7891 30.9181 75.7452 30.9174C75.7113 30.9168 75.6771 30.916 75.6426 30.915L75.6311 30.9146L75.6197 30.9143C75.5697 30.913 75.5202 30.9114 75.4711 30.9093C75.0318 30.8913 74.6275 30.8454 74.2749 30.779ZM74.2645 30.192L76.9118 30.4567H74.2661C74.2648 30.3633 74.2646 30.2745 74.2645 30.192ZM87.4586 26.0194C87.4586 26.0262 87.4586 26.0331 87.4586 26.0399C87.4601 28.5284 87.5263 31.0802 87.6572 33.5673C87.6685 33.84 87.6584 34.1712 87.6473 34.5362C87.6144 35.6149 87.5725 36.9885 88.0493 38.0168C88.3507 38.6669 88.8594 39.179 89.7088 39.3913C90.1146 39.4862 90.4857 39.5429 90.8248 39.5652C92.959 39.7057 93.8298 38.4854 94.1704 36.8627C94.1791 36.8213 94.1874 36.7796 94.1954 36.7376C94.3863 35.7394 94.3882 34.6015 94.3659 33.5392C94.3623 33.3647 94.3579 33.1923 94.3537 33.0228C94.3493 32.8478 94.345 32.6759 94.3416 32.5083C94.7712 33.1958 95.1451 34.0505 95.4813 34.8192C95.6513 35.208 95.8118 35.5748 95.9649 35.8868C95.9754 35.9081 95.9858 35.9291 95.9961 35.9498C96.0083 35.9776 96.0205 36.0053 96.0329 36.033C96.2144 36.4403 96.4164 36.8373 96.6504 37.2163C97.0067 37.7934 97.437 38.3289 97.9816 38.7957C98.4569 39.215 99.1565 39.4926 99.8759 39.5687C99.9279 39.5742 99.98 39.5787 100.032 39.582C100.966 39.6425 101.909 39.3575 102.416 38.5971C103.326 37.1809 102.729 35.6874 101.954 34.2938C101.939 34.267 101.924 34.2403 101.909 34.2137C101.83 34.0731 101.749 33.9336 101.669 33.7954C101.659 33.7783 101.649 33.7613 101.639 33.7443C101.598 33.6742 101.557 33.6044 101.516 33.535C101.508 33.5224 101.501 33.5098 101.493 33.4972C101.448 33.4205 101.403 33.3443 101.359 33.2685C101.313 33.1911 101.269 33.1142 101.225 33.0378C101.018 32.6566 100.808 32.2754 100.595 31.8943C100.145 31.0904 99.6826 30.2865 99.2158 29.4826C99.2129 29.4776 99.2099 29.4725 99.207 29.4675C98.9758 29.0694 98.7436 28.6713 98.5114 28.2732C98.6591 28.2263 98.8029 28.1744 98.9436 28.1188C99.2846 27.9838 99.6051 27.8239 99.906 27.6421C99.9615 27.6086 100.016 27.5743 100.07 27.5394C100.303 27.3892 100.523 27.2256 100.732 27.0504C100.816 26.98 100.898 26.9077 100.978 26.8336C101.211 26.6188 101.427 26.389 101.629 26.1467C101.782 25.9637 101.926 25.7735 102.062 25.5773C102.076 25.5582 102.089 25.539 102.102 25.5198C103.501 23.4682 104.029 20.7773 104.07 18.6762C104.106 16.3236 103.712 13.6544 102.544 11.38C101.511 9.36759 99.8715 7.66437 97.386 6.76336C93.9445 5.50589 89.6426 6.63099 88.0543 9.54302C87.9392 9.76105 87.8402 9.98628 87.7553 10.2175C87.7221 10.3079 87.691 10.3992 87.662 10.4914C87.4075 11.3002 87.3098 12.1738 87.289 13.0631C87.2844 13.2595 87.2836 13.4565 87.2856 13.6538C87.2859 13.6828 87.2863 13.7117 87.2867 13.7407C87.2963 14.3978 87.3365 15.0567 87.3756 15.6978C87.4177 16.3884 87.4586 17.0584 87.4586 17.6835V25.9563C87.4586 25.9773 87.4586 25.9983 87.4586 26.0194ZM95.9799 23.3768C96.0439 23.0896 96.0794 22.7952 96.11 22.4996L95.5439 22.6793L95.317 22.3162H96.1285L95.2629 22.2297L93.8892 20.0318C93.8074 20.1747 93.741 20.3361 93.6875 20.5057C93.5249 21.0215 93.4812 21.6127 93.4812 21.9853C93.4797 22.0068 93.4782 22.0287 93.4768 22.0511C93.4717 22.1341 93.4678 22.223 93.4657 22.3162C93.4637 22.4027 93.4633 22.4928 93.465 22.5854C93.4677 22.7283 93.4754 22.8771 93.4901 23.0271C93.4996 23.1244 93.5121 23.2223 93.5281 23.3193C93.5628 23.5304 93.6141 23.7378 93.6875 23.9282C93.8415 24.3275 94.0927 24.6522 94.4925 24.7802C94.5032 24.7836 94.514 24.7869 94.5249 24.79C94.592 24.8093 94.6632 24.8232 94.7387 24.8312C95.1358 24.8974 95.4667 24.5003 95.6652 24.2355C95.8176 23.9612 95.9139 23.6728 95.9799 23.3768ZM105.631 36.1401C105.587 37.4974 106.618 39.139 107.971 39.5899C108.024 39.607 108.077 39.6234 108.13 39.6393C108.161 39.6486 108.192 39.6578 108.223 39.6667C108.378 39.7108 108.532 39.75 108.688 39.7848C108.998 39.8542 109.311 39.9061 109.625 39.9447C110.249 40.0212 110.881 40.0454 111.517 40.049C111.624 40.0496 111.731 40.0497 111.838 40.0493C112.139 40.0482 112.44 40.0437 112.742 40.0393C112.927 40.0366 113.111 40.0339 113.296 40.0319C113.46 40.0302 113.625 40.029 113.79 40.029C113.833 40.0304 113.877 40.0317 113.921 40.0328C115.576 40.075 117.175 39.8967 118.565 39.0409L118.569 39.0389C119.901 38.2041 120.485 36.7215 120.602 35.1941C120.651 34.5561 120.618 33.9102 120.525 33.3005C120.474 32.9686 120.405 32.6474 120.322 32.3441C120.156 31.7709 119.87 31.2724 119.504 30.8336C119.492 30.8194 119.48 30.8052 119.467 30.791C118.677 29.8662 117.53 29.2096 116.408 28.6788C116.393 28.6718 116.378 28.6648 116.363 28.6578C116.232 28.5963 116.102 28.5364 115.972 28.4779C115.866 28.43 115.761 28.383 115.656 28.3369C115.286 28.1891 114.909 28.0571 114.531 27.9251C114.085 27.7692 113.638 27.6131 113.203 27.4303C113.173 27.4179 113.144 27.4054 113.114 27.3928C112.581 27.1632 112.066 26.8906 111.594 26.5254C111.557 26.4939 111.522 26.4613 111.488 26.4277C111.485 26.4244 111.481 26.4211 111.478 26.4177C111.166 26.1024 110.99 25.6991 110.99 25.208C110.964 24.9708 111.055 24.7178 111.208 24.4891C111.211 24.484 111.215 24.4788 111.218 24.4737C111.238 24.4446 111.259 24.416 111.281 24.3879C111.296 24.3683 111.312 24.3489 111.328 24.3297C111.492 24.134 111.697 23.9665 111.901 23.8581C112.353 23.6187 112.802 23.6664 112.802 24.3297C112.82 24.5143 112.845 24.6927 112.876 24.8669C112.883 24.9101 112.891 24.9531 112.9 24.9959L112.901 25.0009C112.914 25.0705 112.929 25.1395 112.945 25.208C112.996 25.4307 113.058 25.6487 113.131 25.8667C113.178 26.005 113.234 26.1328 113.299 26.251C113.346 26.3367 113.397 26.4173 113.452 26.493C113.478 26.5289 113.505 26.5638 113.533 26.5976C114.093 27.2767 115.001 27.528 115.961 27.574C115.971 27.5745 115.982 27.5749 115.992 27.5754C116.142 27.5818 116.292 27.5834 116.443 27.5809C116.499 27.58 116.555 27.5785 116.61 27.5765C117.419 27.5476 118.218 27.4104 118.84 27.2939C120.336 27.0254 120.679 25.4162 120.75 23.928C120.773 23.458 120.768 23 120.764 22.6002C120.762 22.4547 120.761 22.3168 120.761 22.1889C120.816 18.8405 119.938 14.998 116.809 13.1866C114.584 11.9456 111.891 12.1057 109.746 13.2767C109.14 13.6079 108.577 14.0199 108.081 14.504C106.947 15.614 106.281 17.0999 105.925 18.7039C105.924 18.7068 105.924 18.7097 105.923 18.7125C105.702 19.7124 105.601 20.758 105.582 21.7868C105.561 22.9412 105.643 24.0744 105.775 25.0982C105.78 25.1349 105.784 25.1715 105.789 25.208C105.813 25.4004 105.842 25.5898 105.877 25.7762C106.03 26.5952 106.283 27.3561 106.631 28.0536C106.725 28.2411 106.825 28.4241 106.933 28.6023C106.969 28.6629 107.006 28.7228 107.044 28.7823C107.103 28.875 107.164 28.9664 107.227 29.0565C107.548 29.5164 107.918 29.9414 108.334 30.3293C108.396 30.3871 108.459 30.4441 108.523 30.5003C108.668 30.6276 108.818 30.7507 108.973 30.8694C109.029 30.9117 109.085 30.9534 109.141 30.9946C109.786 31.4633 110.514 31.86 111.32 32.1794C111.749 32.3403 112.178 32.5013 112.601 32.6751C112.646 32.6938 112.692 32.7126 112.737 32.7316C112.833 32.7718 112.928 32.8127 113.023 32.8545C113.114 32.8946 113.205 32.9356 113.296 32.9775C113.382 33.0177 113.469 33.0587 113.554 33.1008C113.609 33.1276 113.664 33.1549 113.718 33.1825C113.779 33.2135 113.839 33.2451 113.899 33.2772C114.118 33.3966 114.267 33.5267 114.358 33.6605C114.392 33.7097 114.417 33.7593 114.436 33.8091C114.454 33.8571 114.466 33.9051 114.471 33.953C114.475 33.9809 114.476 34.0088 114.475 34.0366C114.473 34.1246 114.451 34.2114 114.413 34.2948C114.404 34.3157 114.394 34.3364 114.382 34.3568C114.344 34.4264 114.295 34.4932 114.237 34.556C114.158 34.6419 114.063 34.7202 113.959 34.7877C113.905 34.8225 113.848 34.8545 113.79 34.8831C113.633 34.9598 113.463 35.0128 113.296 35.0338C113.192 35.0338 113.081 35.0338 112.964 35.0308C112.957 35.0307 112.95 35.0305 112.943 35.0303C112.758 35.025 112.56 35.0118 112.362 34.9789C112.08 34.9497 111.799 34.9014 111.519 34.8427C111.182 34.7721 110.846 34.6863 110.509 34.6003C110.48 34.5928 110.45 34.5852 110.42 34.5776C110.405 34.5736 110.389 34.5696 110.373 34.5657C110.149 34.5087 109.925 34.4526 109.7 34.4017C109.685 34.3982 109.669 34.3946 109.653 34.3911C109.332 34.3195 109.009 34.2593 108.682 34.2233C108.538 34.2074 108.393 34.1962 108.247 34.1909C108.028 34.183 107.809 34.1882 107.587 34.2104C106.226 34.3692 105.662 35.1841 105.631 36.1401ZM37.4112 32.376C37.6806 31.945 37.7745 31.3825 37.8358 30.8312C37.5472 30.8853 37.2167 30.9174 36.8379 30.9183C36.7952 30.9184 36.7518 30.9181 36.7078 30.9174C36.674 30.9168 36.6398 30.916 36.6052 30.915L36.5938 30.9146L36.5823 30.9143C36.5324 30.913 36.4828 30.9114 36.4338 30.9093C35.9944 30.8913 35.5901 30.8454 35.2375 30.779C35.241 30.8599 35.2457 30.9427 35.2519 31.0264C35.2533 31.0453 35.2548 31.0641 35.2563 31.0831C35.3247 31.9116 35.5532 32.8168 36.3171 33.0084C36.3703 33.0218 36.4261 33.0316 36.4846 33.0378C36.4986 33.0401 36.5125 33.0419 36.5263 33.0431C36.5313 33.0435 36.5364 33.0439 36.5414 33.0442C36.9132 33.066 37.2222 32.691 37.4112 32.376ZM35.2288 30.4567H37.8745L35.2272 30.192C35.2272 30.2745 35.2275 30.3633 35.2288 30.4567Z" fill="black"/>
</svg>
